<?xml version="1.0" standalone="no"?>
<!DOCTYPE svg PUBLIC "-//W3C//DTD SVG 20010904//EN"
 "http://www.w3.org/TR/2001/REC-SVG-20010904/DTD/svg10.dtd">
<svg version="1.0" xmlns="http://www.w3.org/2000/svg"
 width="900.000000pt" height="900.000000pt" viewBox="0 0 900.000000 900.000000"
 preserveAspectRatio="xMidYMid meet">
<metadata>
Created by potrace 1.10, written by Peter Selinger 2001-2011
</metadata>
<g transform="translate(0.000000,900.000000) scale(0.100000,-0.100000)"
fill="#000000" stroke="none">
<path d="M4355 8354 c-153 -20 -228 -39 -345 -84 -30 -12 -66 -25 -80 -30 -14
-5 -50 -18 -80 -30 -30 -11 -86 -32 -125 -45 -38 -13 -95 -33 -125 -45 -82
-31 -132 -50 -160 -60 -14 -5 -50 -18 -80 -30 -30 -12 -68 -25 -85 -30 -16 -5
-55 -18 -85 -30 -30 -12 -68 -25 -85 -30 -16 -5 -55 -18 -85 -30 -80 -31 -126
-48 -205 -75 -38 -13 -95 -33 -125 -45 -30 -12 -66 -25 -80 -30 -14 -5 -50
-18 -80 -30 -30 -11 -86 -32 -125 -45 -38 -13 -95 -33 -125 -45 -30 -12 -73
-27 -95 -35 -199 -66 -346 -130 -410 -178 -60 -45 -185 -168 -200 -198 l-14
-26 72 24 c88 29 168 30 271 3 42 -11 82 -22 88 -26 6 -4 24 -10 42 -14 17 -5
56 -18 86 -30 30 -12 66 -25 80 -30 14 -5 90 -32 170 -60 80 -28 159 -55 176
-59 18 -5 37 -12 44 -16 7 -4 26 -11 44 -15 17 -5 56 -18 86 -30 30 -12 69
-25 85 -30 17 -5 55 -18 85 -30 30 -12 69 -25 85 -30 39 -11 91 -29 133 -46
18 -8 39 -14 47 -14 8 0 29 -6 47 -14 55 -23 167 -63 213 -76 17 -5 55 -18 85
-30 30 -12 87 -32 125 -45 39 -13 95 -34 125 -45 30 -12 69 -25 87 -30 17 -4
70 -26 118 -49 108 -53 185 -127 235 -226 l35 -70 0 -2030 0 -2030 -27 -52
c-53 -99 -144 -162 -237 -164 -25 0 -55 -4 -65 -8 -17 -7 -15 -10 16 -29 19
-12 43 -22 53 -22 9 0 40 -6 68 -14 29 -8 107 -20 175 -27 207 -20 412 6 657
86 22 7 53 16 68 19 58 13 22 31 -74 37 -52 3 -114 12 -138 19 -64 19 -123 84
-147 162 -18 61 -19 121 -19 2073 l0 2010 33 65 c22 45 56 88 105 135 89 86
145 115 402 205 50 18 99 36 110 41 20 9 47 18 165 58 36 12 74 26 85 31 11 5
49 19 85 31 36 11 79 27 97 35 17 8 37 14 45 14 8 0 18 4 24 8 5 5 41 19 79
31 39 12 79 26 90 31 22 10 124 46 255 90 47 16 110 39 140 50 30 12 66 25 80
29 32 11 156 59 197 77 17 8 37 14 45 14 8 0 18 4 24 9 5 5 25 14 44 19 19 6
60 20 90 31 67 26 182 51 232 51 73 0 147 -26 235 -83 41 -26 63 -33 63 -21 0
17 -78 118 -138 180 -75 77 -164 135 -282 184 -41 17 -84 35 -95 39 -11 5 -40
16 -65 26 -25 9 -56 22 -70 27 -14 6 -38 14 -55 18 -16 5 -55 18 -85 30 -30
12 -68 25 -85 30 -16 5 -55 18 -85 30 -30 12 -68 25 -85 30 -16 5 -55 18 -85
30 -30 12 -67 25 -81 30 -14 4 -34 12 -45 17 -22 12 -76 31 -119 43 -16 5 -55
18 -85 30 -106 41 -135 51 -165 60 -16 4 -55 18 -85 30 -30 12 -86 32 -125 45
-38 14 -90 32 -115 41 -71 26 -228 83 -305 109 -38 13 -95 34 -125 45 -30 12
-69 25 -86 30 -18 4 -36 10 -42 14 -36 22 -336 51 -417 40z m264 -248 c26 -8
80 -27 121 -41 41 -15 89 -30 105 -35 30 -9 59 -19 165 -60 30 -12 69 -25 85
-30 17 -5 55 -18 85 -30 106 -41 135 -51 165 -60 17 -4 55 -18 85 -30 30 -11
87 -32 125 -45 39 -13 95 -33 125 -45 30 -12 69 -26 85 -30 30 -9 59 -19 165
-60 30 -12 69 -26 85 -30 17 -5 75 -25 130 -45 55 -20 118 -42 140 -50 167
-56 215 -77 215 -95 0 -4 -35 -19 -77 -33 -43 -14 -103 -35 -133 -47 -30 -12
-86 -32 -125 -45 -38 -13 -95 -34 -125 -45 -30 -12 -68 -26 -85 -30 -16 -5
-75 -25 -130 -45 -55 -20 -111 -40 -125 -45 -14 -5 -70 -25 -125 -45 -55 -20
-111 -40 -125 -45 -14 -5 -50 -18 -80 -30 -30 -12 -68 -25 -85 -30 -16 -5 -55
-18 -85 -30 -30 -11 -86 -32 -125 -45 -139 -48 -221 -76 -255 -89 -33 -13 -64
-22 -210 -63 -96 -27 -466 -26 -560 0 -91 26 -354 112 -420 137 -30 12 -68 25
-85 30 -16 5 -55 18 -85 30 -30 12 -69 25 -86 30 -18 4 -37 11 -44 15 -7 4
-26 11 -44 16 -17 4 -76 24 -131 44 -55 20 -111 40 -125 45 -14 5 -70 25 -125
45 -55 20 -172 60 -260 90 -88 30 -198 68 -244 85 -46 16 -85 30 -87 30 -10 0
-2 41 9 44 15 4 59 19 162 57 44 17 112 41 150 54 140 48 241 84 295 105 30
12 71 26 90 32 19 5 39 14 45 19 5 5 16 9 25 9 8 0 28 7 44 15 15 8 33 15 38
15 6 0 24 6 41 14 18 8 59 23 92 35 33 11 85 30 115 41 30 12 69 25 85 30 17
5 55 18 85 30 30 12 66 25 80 30 14 5 50 18 80 30 30 12 69 25 85 30 17 5 55
18 85 30 30 12 66 25 80 30 14 5 50 18 80 30 137 53 236 87 270 94 46 9 223
-3 269 -18z"/>
<path d="M4310 7610 c-166 -14 -300 -93 -300 -176 0 -123 289 -209 540 -159
228 45 327 143 238 234 -77 78 -272 120 -478 101z"/>
<path d="M3345 6059 c-64 -26 -121 -81 -151 -144 l-24 -50 0 -1069 c0 -966 -2
-1076 -17 -1130 -32 -120 -104 -195 -226 -238 -70 -25 -278 -26 -334 -2 -102
44 -124 58 -170 107 -51 54 -77 94 -100 157 -17 45 -53 279 -53 350 -1 72 -15
140 -30 150 -7 4 -26 4 -44 0 -268 -65 -290 -72 -339 -119 -79 -73 -108 -241
-72 -421 56 -286 216 -505 467 -639 197 -106 481 -155 697 -120 81 13 213 48
226 60 5 5 15 9 22 9 19 0 140 59 187 91 67 45 169 152 213 224 51 82 94 204
124 350 27 134 33 527 22 1500 l-9 730 -24 50 c-68 139 -234 209 -365 154z"/>
<path d="M5715 6049 c-429 -24 -776 -303 -876 -707 -27 -107 -26 -320 1 -427
74 -290 283 -490 655 -627 44 -16 96 -34 115 -39 19 -6 44 -14 55 -18 11 -5
47 -16 80 -26 114 -33 240 -77 270 -94 139 -75 208 -175 209 -301 1 -136 -74
-260 -194 -320 -25 -12 -53 -26 -62 -31 -37 -18 -212 -38 -258 -29 -25 5 -60
9 -78 10 -33 0 -54 7 -158 56 -58 26 -125 89 -199 184 -86 111 -200 148 -309
99 -52 -23 -107 -73 -132 -120 -39 -77 -34 -219 11 -304 69 -130 221 -271 370
-344 210 -102 450 -146 672 -122 264 29 452 107 608 253 137 127 203 238 257
428 19 65 22 101 22 260 -1 147 -4 194 -17 230 -9 25 -17 51 -17 57 0 11 -45
108 -87 188 -9 17 -55 68 -102 116 -135 133 -303 222 -556 294 -33 9 -80 23
-105 31 -25 7 -92 28 -150 45 -204 62 -312 129 -361 223 -33 64 -32 194 4 262
28 56 90 124 134 148 152 81 278 101 431 67 51 -12 100 -25 110 -30 9 -5 34
-17 55 -27 21 -11 72 -49 114 -86 86 -77 128 -93 212 -83 105 13 195 99 225
216 13 50 12 65 -1 130 -29 136 -122 237 -298 324 -199 98 -379 130 -650 114z"/>
<path d="M1187 1023 c-15 -17 -40 -77 -57 -138 -4 -16 -14 -46 -21 -65 -6 -19
-17 -51 -24 -70 -7 -19 -18 -51 -24 -70 -20 -55 -30 -103 -25 -112 8 -12 38
-10 52 4 7 7 12 22 12 34 0 12 9 33 21 48 18 23 27 26 84 26 82 0 92 -4 106
-48 14 -46 36 -72 60 -72 25 0 32 16 18 42 -7 12 -16 36 -20 53 -4 16 -13 46
-20 65 -6 19 -17 51 -24 70 -7 19 -20 62 -30 95 -27 88 -52 142 -71 149 -21 8
-19 9 -37 -11z m54 -157 c6 -22 17 -58 25 -78 13 -34 12 -38 -6 -48 -22 -12
-80 -13 -98 -2 -13 9 -5 65 19 132 6 19 14 41 16 49 6 23 32 -7 44 -53z"/>
<path d="M1521 1026 c-8 -9 -11 -80 -9 -237 l3 -224 25 0 c24 0 25 3 30 70 3
39 8 75 13 82 4 6 38 15 75 18 37 4 81 16 98 26 93 56 78 211 -24 255 -51 22
-195 29 -211 10z m202 -66 c31 -24 45 -81 28 -116 -16 -36 -69 -64 -122 -64
-40 0 -48 3 -53 23 -8 30 -8 162 1 170 3 4 32 7 63 7 43 0 64 -5 83 -20z"/>
<path d="M1943 1029 c-10 -10 -13 -69 -13 -224 0 -223 5 -251 46 -243 16 3 19
13 22 75 3 83 7 87 90 96 70 8 105 31 131 84 27 55 26 77 -2 133 -30 60 -76
82 -182 88 -57 3 -84 0 -92 -9z m187 -59 c37 -20 51 -104 24 -145 -18 -28 -90
-58 -125 -53 -23 3 -24 9 -32 92 -4 49 -6 95 -3 103 6 16 107 18 136 3z"/>
<path d="M2361 1026 c-8 -9 -11 -81 -9 -237 l3 -224 120 0 c117 0 120 1 123
23 3 21 1 22 -80 22 -52 0 -89 5 -96 12 -9 9 -12 69 -12 209 0 170 -2 198 -16
203 -21 8 -20 8 -33 -8z"/>
<path d="M2705 1029 c-10 -15 -6 -452 4 -462 5 -5 17 -7 27 -5 18 3 19 18 22
227 2 225 -1 251 -34 251 -7 0 -16 -5 -19 -11z"/>
<path d="M2995 1023 c-60 -32 -85 -89 -92 -204 -9 -148 34 -239 123 -259 79
-18 153 17 185 86 22 50 19 64 -15 64 -17 0 -28 -10 -42 -41 -24 -56 -68 -76
-118 -55 -59 25 -71 55 -70 177 1 129 19 178 72 193 49 14 91 -3 113 -44 24
-46 37 -60 55 -60 48 0 7 103 -55 138 -46 26 -113 28 -156 5z"/>
<path d="M3485 1032 c-17 -12 -53 -98 -75 -177 -5 -16 -13 -43 -19 -60 -36
-98 -64 -184 -68 -207 -5 -24 -2 -28 20 -28 20 0 30 11 53 58 l29 57 75 3 c85
3 101 -7 120 -80 10 -35 14 -39 38 -36 31 4 33 26 6 93 -22 53 -38 99 -58 165
-9 30 -23 71 -31 90 -7 19 -19 50 -26 68 -19 51 -42 71 -64 54z m41 -149 c3
-16 12 -44 21 -64 8 -20 13 -47 11 -60 -3 -21 -9 -24 -56 -27 -64 -4 -73 10
-49 79 9 25 17 53 17 61 0 17 20 38 37 38 7 0 15 -12 19 -27z"/>
<path d="M3714 1031 c-2 -2 -4 -12 -4 -22 0 -19 19 -27 80 -31 l35 -3 5 -205
5 -205 25 0 25 0 5 205 5 205 55 5 c48 4 55 8 58 28 2 13 -2 22 -10 23 -47 3
-280 3 -284 0z"/>
<path d="M4121 1027 c-7 -10 -8 -80 -3 -238 l7 -224 25 0 25 0 3 229 c2 177
-1 231 -10 238 -19 11 -34 10 -47 -5z"/>
<path d="M4400 1022 c-59 -40 -81 -92 -87 -207 -4 -76 -2 -99 17 -148 30 -81
70 -109 151 -109 52 0 68 5 103 29 57 40 69 71 74 188 6 137 -14 194 -85 243
-39 28 -135 30 -173 4z m159 -56 c60 -54 47 -311 -17 -345 -30 -16 -84 -13
-110 5 -41 28 -52 66 -52 172 0 111 16 167 53 182 31 14 104 5 126 -14z"/>
<path d="M4795 1028 c-3 -7 -4 -115 -3 -238 l3 -225 25 0 25 0 3 155 c1 85 6
158 11 163 8 8 89 -127 159 -266 22 -42 32 -52 52 -52 l25 0 3 226 c2 237 -1
259 -41 243 -14 -5 -17 -29 -19 -147 -3 -157 -12 -176 -49 -100 -29 60 -119
214 -134 229 -19 20 -55 27 -60 12z"/>
<path d="M5540 1023 c-45 -31 -59 -56 -60 -104 0 -59 25 -88 116 -129 114 -51
154 -110 105 -154 -54 -49 -138 -35 -168 28 -16 35 -45 47 -58 26 -13 -21 15
-86 47 -111 44 -33 158 -35 200 -4 65 49 78 132 28 188 -16 18 -48 41 -72 51
-96 39 -128 59 -134 82 -23 92 93 127 159 48 30 -36 48 -42 65 -21 16 19 -27
80 -71 101 -46 21 -126 21 -157 -1z"/>
<path d="M5872 1031 c-8 -5 -12 -17 -10 -27 2 -15 15 -20 63 -24 l60 -5 5
-205 5 -205 25 0 25 0 5 205 5 205 65 5 c53 4 65 8 68 24 2 10 -2 22 -10 27
-7 5 -76 9 -153 9 -77 0 -146 -4 -153 -9z"/>
<path d="M6352 1011 c-50 -37 -52 -41 -68 -115 -30 -139 -8 -256 59 -310 33
-26 45 -30 100 -30 74 0 124 25 156 78 18 29 21 50 21 157 0 110 -3 128 -23
164 -48 85 -166 112 -245 56z m157 -45 c52 -42 70 -219 30 -297 -36 -72 -123
-86 -175 -28 -17 18 -19 38 -19 154 0 127 1 135 24 159 13 14 33 27 45 29 28
6 78 -3 95 -17z"/>
<path d="M6772 1032 c-9 -7 -12 -61 -10 -238 l3 -229 25 0 c24 0 25 3 28 65 4
109 5 112 59 108 l46 -3 45 -87 c40 -80 47 -88 73 -88 17 0 29 5 29 12 0 7
-19 50 -42 94 l-42 82 31 35 c46 53 58 96 38 144 -23 55 -52 81 -109 98 -53
16 -153 20 -174 7z m197 -78 c28 -36 29 -106 1 -134 -15 -15 -33 -20 -79 -20
-52 0 -59 2 -65 23 -8 30 -8 142 1 150 3 4 32 7 64 7 50 0 60 -3 78 -26z"/>
<path d="M7217 1028 c-16 -12 -17 -33 -15 -238 l3 -225 124 -3 c68 -1 128 1
133 6 5 5 6 16 2 25 -5 14 -21 17 -86 17 -110 0 -118 6 -118 84 0 39 5 67 13
74 6 5 45 12 85 14 40 3 78 10 84 16 21 21 -4 32 -76 32 -97 0 -108 9 -104 85
l3 60 95 5 c93 5 95 5 95 30 0 25 0 25 -110 28 -78 2 -116 -1 -128 -10z"/>
</g>
</svg>
