 <svg  version="1.0" xmlns="http://www.w3.org/2000/svg"  width="300.000000pt" height="300.000000pt" viewBox="0 0 300.000000 300.000000"  preserveAspectRatio="xMidYMid meet">  <g transform="translate(0.000000,300.000000) scale(0.050000,-0.050000)" fill="#ff9500" stroke="none"> <path d="M2147 4872 c-787 -288 -934 -357 -975 -463 -13 -35 11 -38 44 -5 58 58 212 21 872 -212 699 -246 754 -270 820 -358 50 -68 78 -2683 30 -2800 -45 -106 -206 -144 -358 -83 l-70 29 67 -12 c138 -25 63 48 -97 94 -49 14 -99 31 -110 39 -11 7 -47 20 -80 27 -33 8 -96 31 -140 50 -44 20 -120 48 -170 63 -49 14 -101 35 -115 45 -14 10 -25 12 -25 4 0 -8 -11 -6 -25 5 -14 11 -56 27 -95 35 -88 19 -400 169 -400 192 0 10 -11 18 -25 19 -29 1 -135 147 -135 187 0 15 -12 57 -27 95 -15 37 -29 108 -31 157 -10 219 -38 230 -40 15 -5 -480 97 -569 1029 -901 775 -277 1140 -310 1466 -134 18 10 213 78 433 151 828 276 979 361 1070 604 54 145 63 2452 9 2606 -36 107 -89 180 -134 186 -18 3 -50 20 -70 38 -64 58 -1152 476 -1555 597 -209 63 -326 36 -1163 -270z m1700 -93 c622 -222 635 -228 568 -251 -38 -13 -313 -111 -611 -217 -602 -215 -726 -243 -906 -211 -182 33 -1256 416 -1208 430 22 7 333 120 690 251 788 289 650 289 1467 -2z m1052 -348 c81 -42 86 -67 80 -411 -3 -170 -4 -431 -3 -580 1 -148 2 -468 1 -710 -1 -640 -1 -631 8 -738 9 -104 -21 -272 -48 -272 -10 0 -17 -14 -17 -30 0 -80 -224 -224 -499 -321 -72 -26 -221 -78 -331 -117 -110 -39 -238 -76 -285 -84 -47 -7 -85 -19 -85 -28 0 -8 -43 -27 -95 -41 -52 -15 -95 -23 -95 -19 0 10 -83 -58 -130 -106 -55 -56 -160 -22 -205 67 -32 64 -35 173 -35 1401 l0 1332 45 66 c74 109 120 131 735 352 325 116 622 224 660 238 94 36 229 37 299 1z m176 -1316 c-3 -146 -6 -26 -6 265 0 292 3 411 6 265 3 -146 3 -384 0 -530z m0 -470 c-5 -41 -8 -12 -8 65 -1 77 3 111 7 75 5 -35 5 -98 1 -140z"/> <path d="M2920 4658 c-142 -57 -152 -126 -27 -182 165 -72 458 -13 443 90 -13 92 -271 149 -416 92z"/> <path d="M3786 3611 c-306 -96 -489 -397 -426 -701 46 -220 207 -356 558 -472 301 -99 362 -148 362 -288 0 -273 -396 -339 -616 -103 -195 210 -420 31 -274 -218 226 -387 962 -366 1179 33 218 401 17 758 -511 909 -297 85 -358 131 -358 271 0 239 352 323 577 138 117 -97 237 -68 282 68 84 252 -400 480 -773 363z"/> <path d="M2309 3611 c-59 -59 -54 12 -52 -821 3 -861 -9 -899 -277 -899 -202 0 -292 103 -316 362 l-14 157 -57 -6 c-256 -27 -336 -207 -216 -487 214 -500 1041 -497 1215 4 35 100 38 175 38 866 l0 756 -65 59 c-85 75 -186 79 -256 9z"/> <path d="M1075 3209 c-21 -22 -18 -873 3 -907 12 -18 20 0 26 60 5 49 17 105 26 126 11 25 10 34 -3 26 -14 -8 -20 69 -19 225 0 131 8 234 16 228 9 -5 16 14 16 43 0 29 -8 47 -19 41 -10 -7 -21 29 -25 80 -3 51 -13 86 -21 78z"/> </g> </svg> 